<?xml version="1.0" encoding="UTF-8"?>
<!DOCTYPE svg PUBLIC "-//W3C//DTD SVG 1.1//EN" "http://www.w3.org/Graphics/SVG/1.1/DTD/svg11.dtd">
<!-- Creator: CorelDRAW -->
<svg xmlns="http://www.w3.org/2000/svg" xml:space="preserve" width="126.497mm" height="86.3012mm" version="1.1" style="shape-rendering:geometricPrecision; text-rendering:geometricPrecision; image-rendering:optimizeQuality; fill-rule:evenodd; clip-rule:evenodd"
viewBox="0 0 12650 8630"
 xmlns:xlink="http://www.w3.org/1999/xlink">
 <defs>
  <style type="text/css">
   <![CDATA[
    .fil3 {fill:black}
    .fil1 {fill:#B0C77D}
    .fil2 {fill:#BEC8FF}
    .fil5 {fill:#CCFFCC}
    .fil0 {fill:#FF9999}
    .fil4 {fill:white}
   ]]>
  </style>
 </defs>
 <g id="__x0023_Layer_x0020_1">
  <metadata id="CorelCorpID_0Corel-Layer"/>
  <g id="busi0919.ai">
   <g>
    <polygon class="fil0" points="926,746 926,7867 9234,7867 9234,746 "/>
    <polygon class="fil1" points="2251,2024 4099,1304 5134,247 12562,3802 9074,7293 6673,5440 7033,3877 5331,4229 "/>
    <polygon class="fil2" points="2410,5202 2418,4896 2309,4720 2196,4619 2066,4552 1911,4497 1748,4468 1484,4485 964,4640 1119,5046 1744,4937 1978,5025 2079,5202 2402,5273 "/>
    <polygon class="fil2" points="2402,5168 2096,5059 1853,5461 1283,5755 813,5834 482,5759 415,5604 528,5424 666,5365 1132,5118 1178,4954 1069,4569 407,4992 4,5612 126,5981 352,6166 893,6245 1559,6019 2003,5818 2251,5596 "/>
    <polygon class="fil2" points="3378,6581 2838,6501 2523,6568 2012,6857 1693,7239 1630,7498 1459,7892 1555,8270 1798,8555 2217,8597 2762,8320 3236,7968 3533,7658 3797,7360 3802,7004 3642,6778 3533,7134 3223,7540 3039,7804 2745,8018 2448,8156 2117,8249 1878,8119 1832,7863 1970,7637 2226,7251 2662,6895 2997,6815 3487,6954 "/>
    <polygon class="fil2" points="7528,2108 7322,1995 6719,2029 5977,2389 4036,4870 3332,4590 2611,4787 2347,4929 2368,5239 2737,5118 3156,5160 3613,5340 3756,5818 3705,5998 3081,5948 2741,6199 2838,6501 3336,6660 3303,6363 3856,6321 4359,5860 4829,5881 5709,5524 6727,5076 6941,4673 7071,4158 7138,3860 5432,4594 "/>
    <polygon class="fil3" points="6916,5051 6585,5197 6119,5424 5705,5625 5344,5801 4833,6057 4652,6149 4070,5897 4221,5633 4715,5717 5088,5583 5482,5432 5952,5239 6446,5017 6962,4761 "/>
    <polygon class="fil3" points="3257,6899 3227,6866 3190,6840 3131,6811 3056,6790 3009,6782 2959,6778 2905,6782 2842,6790 2703,6824 2548,6899 2381,7012 2301,7079 2217,7155 2142,7226 2104,7268 2066,7306 2033,7343 1995,7381 1966,7423 1932,7457 1903,7494 1844,7565 1794,7649 1744,7763 1714,7863 1710,7959 1723,8035 1748,8115 1781,8161 1819,8211 1865,8253 1928,8278 1966,8291 2016,8291 2079,8291 2167,8274 2301,8224 2226,8228 2146,8219 2083,8203 2020,8161 1966,8094 1924,8014 1911,7959 1920,7897 1936,7830 1970,7754 2012,7679 2037,7637 2062,7599 2087,7557 2117,7515 2150,7477 2184,7440 2217,7398 2251,7360 2289,7318 2326,7285 2360,7251 2397,7213 2473,7151 2544,7092 2615,7046 2737,6979 2942,6924 3106,6899 3219,6899 "/>
    <polygon class="fil3" points="7549,2117 5482,4652 5336,4757 5231,4820 5105,4891 4971,4967 4833,5030 4615,5101 4535,5101 4460,5101 4401,5088 4347,5076 4246,5038 4326,5021 4535,4954 4854,4795 5051,4673 5155,4602 5264,4523 5319,4472 5386,4418 5453,4355 5524,4284 5566,4246 5604,4208 5642,4166 5684,4124 5725,4082 5767,4041 5809,3994 5851,3948 5897,3898 5939,3852 5981,3806 6027,3751 6073,3701 6119,3655 6166,3605 6212,3550 6254,3500 6304,3445 6346,3395 6392,3345 6438,3294 6484,3240 6526,3190 6572,3139 6614,3085 6660,3039 6702,2984 6744,2934 6782,2888 6828,2842 6866,2791 6907,2745 6941,2699 6979,2653 7016,2611 7050,2569 7088,2527 7117,2490 7151,2448 7180,2414 7209,2381 7239,2347 7285,2284 7331,2230 7364,2188 7398,2150 7419,2125 7448,2024 "/>
    <polygon class="fil3" points="5126,3982 5365,3705 5566,3496 5784,3269 5818,3236 5851,3198 5885,3165 5914,3131 5981,3068 6040,3005 6098,2947 6157,2892 6212,2842 6258,2800 6346,2729 6421,2670 6497,2620 6639,2527 6773,2448 6886,2385 7125,2276 6941,2297 6824,2314 6715,2347 6593,2397 6493,2465 6358,2553 6203,2657 6094,2745 5981,2842 5881,2934 5780,3030 5684,3131 5583,3248 5482,3378 4673,4455 4720,4460 "/>
    <polygon class="fil3" points="3990,5482 3915,5428 3831,5369 3722,5302 3663,5264 3596,5231 3529,5197 3458,5160 3387,5130 3311,5101 3165,5059 3127,5055 3093,5046 3056,5042 3018,5042 2942,5038 2871,5038 2800,5042 2729,5051 2599,5076 2490,5101 2402,5126 2326,5151 2326,5231 2301,5315 2251,5424 2226,5457 2200,5487 2175,5520 2146,5549 2112,5583 2071,5616 1987,5684 1878,5751 1748,5818 1425,5943 1090,6040 943,6069 817,6090 700,6099 599,6099 507,6090 469,6086 432,6078 310,6027 226,5952 176,5860 147,5755 143,5700 151,5637 163,5579 184,5516 251,5390 268,5357 293,5323 314,5294 335,5260 360,5231 386,5197 411,5168 440,5134 495,5076 549,5017 608,4958 671,4904 729,4854 784,4812 847,4770 914,4728 1060,4657 1379,4552 1526,4514 1639,4485 1748,4468 1718,4460 1685,4455 1635,4447 1576,4443 1505,4443 1425,4443 1337,4451 1241,4468 1136,4489 914,4569 679,4699 557,4787 495,4837 436,4896 377,4950 323,5009 268,5059 226,5109 184,5160 147,5210 113,5256 84,5306 0,5474 0,5621 0,5868 46,6057 109,6136 151,6170 201,6203 319,6254 461,6291 499,6300 537,6304 574,6312 620,6312 658,6321 696,6321 780,6321 863,6321 951,6312 1039,6300 1123,6287 1291,6245 1450,6203 1748,6099 2008,5956 2117,5864 2167,5818 2217,5767 2255,5717 2293,5663 2343,5566 2402,5403 2414,5252 2481,5239 2553,5231 2649,5223 2762,5218 2821,5214 2879,5218 2947,5223 3009,5231 3072,5239 3139,5256 3265,5306 3378,5390 3575,5596 3756,5868 "/>
    <polygon class="fil3" points="7113,3940 4833,5030 5352,4590 7138,3814 "/>
    <polygon class="fil3" points="3412,6019 3357,6010 3303,6006 3232,6006 3156,6023 3081,6048 3009,6094 2951,6166 2896,6329 2913,6463 2972,6589 2838,6543 2741,6451 2708,6375 2691,6275 2691,6224 2695,6174 2724,6086 2750,6048 2779,6015 2842,5964 2988,5897 3127,5893 3332,5964 "/>
    <polygon class="fil3" points="2708,6576 2678,6581 2590,6610 2448,6689 2356,6757 2251,6845 2192,6899 2133,6954 2079,7008 2020,7067 1966,7125 1911,7184 1861,7243 1815,7293 1769,7348 1731,7394 1693,7440 1664,7473 1630,7511 1605,7549 1618,7444 1643,7327 1664,7264 1685,7192 1714,7113 1748,7037 1790,6962 1815,6920 1840,6882 1865,6845 1899,6807 1928,6769 1962,6736 1999,6702 2037,6669 2121,6606 2280,6518 2410,6476 2515,6463 2590,6476 2683,6539 "/>
    <polygon class="fil3" points="4556,4414 4527,4460 4493,4506 4464,4552 4435,4598 4409,4640 4384,4678 4359,4715 4334,4753 4309,4791 4288,4824 4267,4854 4250,4887 4229,4912 4204,4958 4179,5000 4162,5025 4145,5051 4070,5017 3973,4984 3864,4942 3735,4891 3592,4845 3450,4803 3412,4795 3374,4787 3341,4778 3303,4770 3269,4766 3236,4761 3160,4753 3085,4753 3009,4761 2934,4770 2863,4782 2720,4812 2410,4912 2423,4896 2452,4854 2481,4829 2511,4795 2548,4761 2586,4728 2687,4661 2808,4606 2955,4564 3123,4556 3211,4556 3257,4564 3299,4564 3341,4573 3382,4577 3424,4585 3462,4594 3500,4598 3542,4606 3575,4615 3609,4623 3739,4661 3848,4699 3923,4728 3994,4761 4045,4673 4103,4573 4120,4539 4137,4506 4162,4472 4183,4439 4204,4401 4229,4359 4254,4321 4279,4275 4309,4233 4334,4191 4363,4145 4393,4095 4426,4049 4455,4003 4489,3948 4518,3898 4552,3848 4590,3797 4623,3747 4661,3693 4694,3642 4732,3588 4770,3533 4808,3479 4845,3429 4883,3374 4925,3320 4963,3265 5005,3215 5042,3160 5084,3110 5122,3056 5164,3005 5210,2959 5252,2909 5290,2859 5331,2812 5373,2762 5411,2720 5453,2678 5495,2632 5537,2590 5579,2553 5621,2511 5658,2473 5700,2439 5780,2372 5860,2318 5935,2268 6086,2184 6228,2117 6484,2016 6706,1957 6807,1941 6895,1932 6975,1928 7050,1928 7113,1928 7167,1932 7213,1936 7247,1945 7293,1945 7448,2024 7519,2087 7549,2117 7444,2083 7389,2075 7322,2066 7247,2062 7155,2062 7063,2071 6958,2083 6845,2108 6723,2142 6467,2251 6187,2423 6111,2481 6036,2544 5960,2620 5918,2653 5881,2695 5834,2737 5797,2783 5755,2825 5713,2871 5671,2917 5629,2968 5587,3018 5545,3068 5503,3118 5457,3173 5415,3223 5373,3278 5331,3332 5285,3387 5243,3445 5202,3496 5160,3554 5118,3609 5080,3667 5038,3722 4996,3776 4958,3835 4921,3890 4879,3944 4841,4003 4799,4053 4766,4108 4728,4162 4690,4212 4657,4267 4619,4317 4590,4367 "/>
    <polygon class="fil3" points="1626,4615 1693,4598 1765,4594 1874,4619 1987,4665 2062,4745 2129,4854 2150,4963 2154,5034 2150,5101 2142,5168 2121,5231 2096,5290 2037,5399 2003,5445 1970,5495 1932,5537 1895,5570 1823,5633 1685,5709 1492,5793 1257,5872 1081,5914 910,5943 830,5948 754,5948 620,5927 520,5893 440,5839 390,5759 360,5675 365,5612 381,5545 402,5478 432,5415 448,5382 465,5357 507,5302 545,5260 616,5197 754,5109 671,5365 591,5432 549,5495 524,5533 499,5570 474,5646 482,5709 507,5738 553,5755 578,5763 612,5767 650,5772 696,5772 788,5767 880,5755 981,5738 1077,5717 1270,5654 1450,5575 1756,5394 1861,5302 1895,5256 1920,5214 1932,5134 1899,5084 1827,5051 1790,5042 1744,5030 1698,5025 1614,5021 1484,5034 1228,5105 876,5248 1153,4887 1324,4921 1333,4787 1555,4896 1459,4690 1798,4816 "/>
    <polygon class="fil3" points="4271,5143 4401,5197 4493,5357 4426,5520 4246,5562 4112,5432 4112,5273 4279,5382 4363,5290 4145,5193 "/>
    <polygon class="fil3" points="2817,7993 2863,7943 2913,7892 2959,7838 3005,7783 3047,7729 3093,7674 3135,7616 3173,7561 3194,7532 3211,7507 3227,7482 3244,7452 3303,7343 3353,7243 3382,7146 3399,7054 3399,6916 3370,6815 3278,6698 3223,6656 3173,6610 3131,6547 3102,6459 3118,6363 3194,6304 3303,6266 3370,6254 3437,6249 3504,6245 3571,6245 3634,6245 3688,6245 3735,6249 3772,6254 3806,6258 4221,5633 4376,5784 4342,5885 4296,5985 4263,6040 4221,6099 4175,6161 4120,6216 3986,6312 3814,6379 3714,6396 3659,6400 3600,6400 3504,6400 3441,6409 3403,6417 3391,6434 3433,6484 3533,6560 3596,6601 3659,6656 3730,6715 3789,6778 3890,6924 3923,7096 3873,7301 3814,7415 3781,7469 3739,7528 3697,7586 3651,7645 3600,7704 3546,7763 3491,7821 3433,7884 3374,7943 3311,7997 3253,8052 3190,8110 3127,8161 3056,8224 2980,8282 2896,8345 2812,8404 2712,8475 2603,8538 2506,8588 2393,8630 2297,8630 2226,8630 2154,8630 2087,8630 2016,8630 1945,8630 1882,8630 1819,8630 1752,8613 1693,8584 1635,8550 1584,8509 1534,8462 1463,8374 1417,8291 1396,8224 1383,8098 1396,7976 1429,7863 1513,7695 1547,7645 1559,7628 1551,7687 1542,7754 1534,7838 1538,7934 1551,8031 1580,8115 1635,8211 1693,8286 1752,8341 1811,8387 1878,8416 1936,8437 2020,8454 2112,8462 2205,8454 2301,8437 2389,8404 2490,8366 2607,8307 2716,8245 2804,8186 2905,8106 2976,8048 3035,8001 3093,7947 3148,7892 3202,7838 3261,7779 3320,7721 3370,7662 3424,7599 3475,7540 3521,7482 3542,7457 3559,7427 3579,7398 3596,7369 3626,7318 3667,7218 3688,7121 3693,7037 3663,6874 3651,6933 3634,6995 3609,7075 3579,7163 3542,7251 3454,7410 3424,7444 3387,7486 3345,7532 3299,7578 3244,7628 3190,7683 3127,7737 3068,7792 3001,7846 2934,7901 2867,7951 "/>
    <polygon class="fil3" points="4384,5537 4778,5637 6262,4975 "/>
    <polygon class="fil4" points="2557,5021 2787,4971 3018,4963 3227,4992 3470,5076 3772,5239 4007,5403 4041,5214 3844,5088 3563,4958 3345,4875 3093,4845 2879,4875 2708,4912 "/>
    <polygon class="fil4" points="2980,6346 3018,6212 3089,6136 3202,6078 3345,6061 3525,6078 3680,6136 3768,6207 3533,6187 3353,6178 3232,6203 3110,6258 3056,6354 3047,6493 "/>
    <polygon class="fil4" points="683,4971 847,4837 989,4736 1127,4673 1312,4598 1509,4560 1685,4548 1509,4619 1601,4690 1413,4665 1459,4795 1287,4690 1291,4858 1161,4782 1052,4917 876,4904 "/>
    <polygon class="fil4" points="4556,5134 4669,5122 4799,5076 5013,4988 7113,3999 7079,4074 4958,5122 4778,5189 4644,5197 "/>
    <polygon class="fil4" points="5688,2963 5922,2695 6115,2532 6337,2381 6568,2234 6807,2154 7046,2117 7264,2112 7352,2125 7243,2217 7004,2226 6790,2263 6593,2339 6333,2494 6061,2703 5839,2909 5315,3445 "/>
    <polygon class="fil4" points="6593,2984 5403,4338 5072,4598 4766,4778 4502,4896 5189,4066 4925,4573 5520,3839 5331,4229 "/>
    <polygon class="fil3" points="5939,4041 7033,3877 5688,4334 "/>
    <polygon class="fil3" points="7071,4158 6446,5390 9234,7867 12650,3747 11983,3906 9234,6874 6916,5466 "/>
    <polygon class="fil3" points="4552,4049 2020,1970 3068,1568 3605,1341 4015,1161 4309,981 4552,746 4774,516 4933,205 4988,0 11174,3269 9590,2636 5172,402 4954,650 4686,964 4367,1236 4045,1467 3626,1630 3160,1781 2829,1920 2498,2075 4820,3726 "/>
    <polygon class="fil3" points="7884,5818 10064,3072 10340,3206 8261,5990 "/>
    <polygon class="fil3" points="7553,4845 7846,4468 8177,5067 8479,5474 8794,5692 8944,5700 9058,5625 9100,5482 9108,5285 9012,4992 8651,4108 8634,3793 8689,3575 8802,3420 8957,3282 9183,3165 9401,3110 9686,3131 9883,3240 10076,3366 10256,3575 10399,3965 10076,4564 9904,3973 9808,3726 9619,3546 9447,3508 9288,3517 9162,3567 9058,3651 9024,3814 9024,3994 9079,4170 9431,5076 9515,5369 9523,5646 9464,5864 9364,6044 9175,6128 8974,6140 8756,6044 8471,5910 8110,5637 7800,5239 "/>
    <polygon class="fil3" points="3848,2548 5654,1027 5885,1102 4162,2645 "/>
    <polygon class="fil3" points="3571,2012 3814,1798 4091,2133 4342,2360 4602,2481 4728,2486 4824,2444 4854,2364 4862,2251 4782,2092 4485,1601 4468,1429 4514,1308 4611,1224 4736,1144 4925,1081 5105,1052 5340,1060 5503,1123 5663,1190 5809,1308 5931,1526 5663,1853 5520,1526 5445,1392 5285,1291 5143,1270 5013,1274 4908,1304 4824,1350 4791,1438 4791,1538 4837,1639 5130,2138 5197,2301 5210,2452 5160,2574 5072,2674 4917,2720 4749,2729 4569,2674 4334,2603 4036,2448 3776,2226 "/>
    <polygon class="fil5" points="3387,1936 2879,2159 3596,2615 3701,2393 3387,2326 3559,2184 3311,2159 "/>
    <polygon class="fil5" points="3923,1689 4313,1517 4300,1936 "/>
    <polygon class="fil5" points="5172,562 4912,968 5419,905 5499,1048 5776,943 6061,1283 6371,1140 "/>
    <polygon class="fil5" points="4095,2888 4757,3332 5046,2888 4640,2993 4468,2758 "/>
    <polygon class="fil5" points="10688,3265 11761,3751 10428,5147 10298,4745 10546,4179 11132,4103 10625,3789 11028,3726 "/>
    <polygon class="fil5" points="7155,4548 7104,5344 7834,5734 7884,5566 7469,5122 "/>
    <polygon class="fil5" points="8550,6153 9175,6610 9762,5973 9167,6308 "/>
    <polygon class="fil5" points="7716,1765 9976,2913 9531,2968 9234,2628 8655,2720 8525,2444 8215,2406 "/>
    <polygon class="fil3" points="6589,746 9234,746 9234,2096 "/>
    <polygon class="fil3" points="4246,746 3705,1136 3177,1345 2318,914 2691,1589 1714,1023 2205,1718 1266,1383 1945,2020 1174,1924 2205,2448 1249,2506 2465,3089 1266,3127 2821,3651 1266,3726 2955,4137 1324,4346 926,4476 926,746 "/>
    <polygon class="fil3" points="926,6501 1660,6295 2071,6052 1790,6635 1492,7159 1341,7867 926,7867 "/>
    <polygon class="fil3" points="3906,7867 4170,7234 4435,7628 4640,6576 4942,7612 5223,6262 5650,7591 5763,5960 6421,7532 6308,5734 7151,7498 7000,6128 8894,7867 "/>
   </g>
  </g>
 </g>
</svg>
